<?xml version="1.0" encoding="UTF-8"?>
<svg width="165px" height="114px" viewBox="0 0 165 114" version="1.1" xmlns="http://www.w3.org/2000/svg" xmlns:xlink="http://www.w3.org/1999/xlink">
    <title>-mockplus-</title>
    <defs>
        <linearGradient x1="10.6512406%" y1="59.8629557%" x2="100%" y2="42.6354599%" id="linearGradient-1">
            <stop stop-color="#FFCB00" offset="0%"></stop>
            <stop stop-color="#F08B00" offset="100%"></stop>
        </linearGradient>
    </defs>
    <g id="主面板设计" stroke="none" stroke-width="1" fill="none" fill-rule="evenodd">
        <g id="零件" transform="translate(-48.000000, -23.000000)">
            <g id="编组-8" transform="translate(30.000000, 23.000000)">
                <g id="logo/TBS" transform="translate(18.000000, 0.000000)">
                    <rect id="矩形" x="0" y="0" width="164.666667" height="114"></rect>
                    <path d="M128.232582,12.6666667 L123.742315,40.9646617 L141.866667,46.5958326 L97.9246845,95 L116.24399,55.1716469 L102.174955,51.1407949 L128.232582,12.6666667 Z M72.6400529,46.9116534 L72.6400529,56.1225037 L66.649276,58.8854052 L66.649276,85.6339973 L53.1299113,91.6449168 L53.1299113,64.1149052 L16.4666667,70.52891 L72.6400529,46.9116534 Z M87.7040867,39.9889834 C87.7040867,39.9889834 93.9158579,37.5959302 96.0765352,38.1086263 C97.9796203,38.5597988 101.010903,39.9698899 101.010903,43.3932853 C101.010903,47.4976827 95.5120846,53.6549858 95.5120846,53.6549858 C98.608117,53.5071879 101.604209,54.3557883 102.483964,56.1717932 C103.296857,57.8491933 103.921835,60.3051844 102.252412,63.051821 C101.678812,63.9951818 84.0485305,84.2152081 84.0485305,84.2152081 L84.0485305,84.2152081 L76.6501463,77.4030683 L76.6501463,45.0706855 Z M95.0349058,59.3066645 C87.8659616,59.3066645 83.6290635,63.6175546 83.6290635,63.6175546 L83.6290635,63.6175546 L83.6290635,70.1828931 C84.8655937,69.5942827 87.2250852,67.8287116 89.5087324,65.886708 L89.9494596,65.5089019 C93.3893609,62.5363723 96.4771402,59.3066645 95.0349058,59.3066645 Z M92.0887836,46.9114412 C86.9259859,46.9114412 83.8997605,49.777053 83.64637,50.0262367 L83.6290635,50.0434839 L83.6290635,54.9872885 C86.0318492,53.8437994 93.936972,46.9114412 92.0887836,46.9114412 Z" id="形状结合" fill="url(#linearGradient-1)"></path>
                </g>
            </g>
        </g>
    </g>
</svg>