<?xml version="1.0" standalone="no"?><!DOCTYPE svg PUBLIC "-//W3C//DTD SVG 1.1//EN" "http://www.w3.org/Graphics/SVG/1.1/DTD/svg11.dtd"><svg t="1679691631716" class="icon" viewBox="0 0 1479 1024" version="1.1" xmlns="http://www.w3.org/2000/svg" p-id="1905" xmlns:xlink="http://www.w3.org/1999/xlink" width="288.8671875" height="200"><path d="M1151.840711 113.777778l-40.334222 254.179555L1274.311111 418.554311 879.604622 853.333333l164.5568-357.751466-126.384355-36.215467L1151.840711 113.777778zM652.481422 421.387378v82.727822l-53.816889 24.814933v240.275911L477.252267 823.182222V575.908978L147.911111 633.526044l504.570311-212.138666zM787.797333 359.196444s55.796622-21.492622 75.207111-16.884622c17.089422 4.050489 44.316444 16.725333 44.316445 47.468089 0 36.864-49.379556 92.171378-49.379556 92.171378 27.807289-1.319822 54.715733 6.291911 62.611911 22.607644 7.304533 15.064178 12.925156 37.125689-2.070755 61.804089-5.028978 8.260267-155.875556 181.339022-163.236978 189.781334l-0.284444 0.318577-66.446223-61.189689V404.844089z m65.854578 173.522489c-60.370489 0-97.598578 34.030933-102.013155 38.286223l-0.398223 0.386844-0.045511 0.045511v58.9824c28.672-13.653333 124.507022-97.700978 102.456889-97.700978z m-26.464711-111.342933c-48.480711 0-76.003556 28.137244-76.003556 28.137244v44.407467c21.595022-10.274133 92.603733-72.544711 76.003556-72.544711z" p-id="1906" fill="#FFA900"></path></svg>