<?xml version="1.0" encoding="UTF-8"?>
<svg width="1658px" height="434px" viewBox="0 0 1658 434" version="1.1" xmlns="http://www.w3.org/2000/svg" xmlns:xlink="http://www.w3.org/1999/xlink">
    <title>形状结合</title>
    <defs>
        <linearGradient x1="50%" y1="5.99107568%" x2="50%" y2="90.2407894%" id="linearGradient-1">
            <stop stop-color="#3C2F26" stop-opacity="0.85" offset="0%"></stop>
            <stop stop-color="#20170F" offset="100%"></stop>
        </linearGradient>
        <linearGradient x1="3.31431414%" y1="50%" x2="96.3059966%" y2="50%" id="linearGradient-2">
            <stop stop-color="#FFCB00" offset="0%"></stop>
            <stop stop-color="#F08B00" offset="100%"></stop>
        </linearGradient>
    </defs>
    <g id="页面-1" stroke="none" stroke-width="1" fill="none" fill-rule="evenodd">
        <g id="W3-benchamrk-cockpit" transform="translate(-131.000000, -643.000000)" fill="url(#linearGradient-1)" stroke="url(#linearGradient-2)" stroke-width="2">
            <path d="M960.292345,644 C1045.6089,644 1122.24325,672.021358 1174.83528,716.537912 C1379.99409,727.608878 1581.09632,753.686095 1778.73199,795.006813 C1781.63502,795.613764 1784.03603,797.316927 1785.58396,799.598788 C1787.13189,801.880649 1787.82674,804.741208 1787.31744,807.662951 L1787.31744,807.662951 L1741.9023,1068.20206 C1741.61018,1069.8779 1740.73674,1071.32739 1739.51104,1072.35791 C1738.28534,1073.38844 1736.7074,1074 1735.00628,1074 L1735.00628,1074 L999.439177,1074.00695 C986.639205,1075.32115 973.570994,1076 960.292345,1076 C947.013697,1076 933.945485,1075.32115 921.145514,1074.00695 L921.145514,1074.00695 L176.940571,1074 C175.198376,1074 173.588807,1073.35932 172.353326,1072.28746 C171.117845,1071.21559 170.256453,1069.71253 170.010613,1067.98777 L170.010613,1067.98777 L132.860586,807.35128 C132.452661,804.48937 133.187319,801.713792 134.730732,799.50277 C136.274146,797.291749 138.626316,795.645283 141.453416,795.041597 C337.749217,753.12547 539.160535,726.888907 745.687321,716.33153 C798.851191,671.835353 875.259446,644 960.292345,644 Z" id="形状结合"></path>
        </g>
    </g>
</svg>